<?xml version="1.0" encoding="UTF-8"?>
<svg id="Layer_1" data-name="Layer 1" xmlns="http://www.w3.org/2000/svg" viewBox="0 0 300 295.76">
  <defs>
    <style>
      .cls-1 {
        fill: #d9698a;
      }
    </style>
  </defs>
  <g id="p7jqqg">
    <path class="cls-1" d="m179.93,114.38l10.53,7.26c1.4,1.08,1.58.03,1.84-.98,1.65-6.58,3.27-13.18,4.96-19.75,2.37-9.21,5.4-18.22,9.34-26.84,3.27-7.17,7.38-13.98,12.7-19.91,10.04-11.2,22.78-16.26,37.65-15.6,14.35.64,26.4,6.47,34.96,18.13,8.14,11.09,9.73,23.76,6.63,36.98-3.87,16.52-15.53,26.21-32.49,27.05-16.33.81-29.09-12.27-30.13-28.12-.83-12.72,4.34-22.72,14.84-29.99,2.51-1.74,4.88-3.68,6.66-6.24,1.31-1.89,1.21-3.63-.41-5.25-2.59-2.59-5.83-3.17-9.28-2.8-4.65.5-8.91,1.87-13.08,4.27-13.38,7.71-19.69,20.53-25.13,33.94-5.02,12.35-8,25.34-11.34,38.21-.59,2.28.95,3.05,2,4.04l8.61,7.29c7.65,6.46,15.26,13.17,22.39,20.53,2.66,2.75,4.38,6.44,6.47,9.73,7.19,11.33,10.47,23.85,11.44,37.12,1.08,14.68-.61,28.95-5.61,42.81-3.69,10.24-9.56,19.19-17.23,26.72-6.5,6.38-14.35,11.08-22.76,14.74-16.69,7.27-34.15,9.05-52.1,7.54-2.41-.2-4.82-.4-7.23-.56-3.07-.2-2-2.52-2.16-4.18-.19-1.96,1.07-2.34,2.65-2.3,6.65.18,13.18-.56,19.58-2.44,17.22-5.06,27.79-18.3,29.77-36.17,1.48-13.33-1.73-25.08-9.98-35.5-2.7-3.41-6.01-6.27-9.22-9.21-1.31-1.2-2.08-1.1-2.79.66-1.97,4.92-3.61,9.15-6.13,14.8,0,0-16.97,31.33-37.86,44.22-9.99,6.24-20.97,9.35-32.47,10.81-14.91,1.9-29.49.63-43.53-5.22-7.92-3.3-15.18-7.62-21.81-13.04-15.42-12.61-25.7-28.43-29.06-48.19-3.12-18.37.25-35.72,9.93-51.74,3.86-6.39,8.58-12.04,13.99-17.2,10.62-10.15,23.08-17.44,36.25-23.61,2.41-1.13,2.89-1.97,1.48-4.44-5.98-10.49-9.83-21.74-9.94-33.91-.12-13.46,3.27-26.08,9.75-37.95,3.49-6.4,7.81-12.3,12.86-17.26,6.02-5.91,13.17-10.74,20.91-14.5C113.07.22,130.34-2.4,148.54,2.39c9.9,2.61,17.81,8.14,24.2,15.95,6.43,7.88,9.68,16.97,10.45,27.14.7,9.33-1.75,17.84-6.59,25.48-4.45,7.03-10.67,12.53-18.27,16.24-1.56.76-3.04,1.63-4.77,2.13-2.55.73-2.88,3.26-.83,4.79,8.79,6.56,17.59,13.1,26.39,19.65m-114.86,9.3c-8.76,8.47-13.77,18.62-13.58,30.97.11,7.11,2.55,13.52,5.84,19.82,6.39,12.23,15.75,21.7,26.54,29.9,5.73,4.35,11.9,7.98,18.43,11.21,6.06,3,12.17,5.48,18.64,7.06,11.45,2.79,22.29,1.38,32.29-5.27,6.02-2.61,13.96-15.46,13.96-15.46.61-1.01.51-1.96-.66-2.57-4.42-2.33-8.06-5.78-12.11-8.63-7.67-5.39-15.47-10.6-23.02-16.15-15.62-11.49-31.2-23.03-45.4-36.32-4.46-4.17-8.95-8.23-12.84-12.95-1.01-1.22-1.92-2.1-3.97-2.74,0,0-2.29-.71-4.12,1.15Zm55.1-78.07c-.27,5.87.55,11.47,2.51,16.85,2.09,5.73,5.44,10.61,9.96,14.83,3.31,3.09,6.51,6.27,10.21,8.91,1.02.73,1.91,1.06,2.96.08,1.49-1.39,3.16-2.6,4.53-4.08,13.88-15.03,19.46-32.78,16.3-52.92-2.4-15.31-15.93-22.9-29.56-17.09-7.1,3.02-11.21,8.93-13.95,15.82-2.25,5.67-3.29,11.61-2.95,17.61Z"/>
  </g>
</svg>