<?xml version="1.0" encoding="UTF-8"?><svg id="Layer_1" xmlns="http://www.w3.org/2000/svg" viewBox="0 0 80.36 12.11"><defs><style>.cls-1{fill:#fff;}</style></defs><path class="cls-1" d="m54,9.78c-.22-.33-.43-.66-.65-.99-.65-.97-1.3-1.94-1.95-2.9-.04-.07-.04-.12.01-.17.09-.09.18-.18.27-.27.7-.75,1.41-1.5,2.11-2.25.31-.33.61-.66.91-.99.03-.03.08-.07.06-.12-.02-.05-.08-.03-.12-.03-.81-.02-1.62.04-2.43.05-.51,0-1.02.01-1.53-.02-.22-.01-.38.04-.53.23-.58.71-1.18,1.39-1.74,2.11-.02.03-.04.09-.09.08-.06-.02-.03-.08-.03-.12,0-1.03,0-2.05,0-3.08,0-.38.02-.77.03-1.15,0-.09-.03-.13-.12-.13-.33,0-.66-.03-.99-.02-.4.02-.81.04-1.21.05-.44,0-.88,0-1.32,0q-.23,0-.23.24c0,2.44,0,4.88,0,7.32,0,.14-.04.18-.18.18-1.14,0-2.27,0-3.41,0-.15,0-.21.05-.22.19,0,.02,0,.05,0,.07-.1.64-.59,1.11-1.2,1.13-.4.02-.76-.1-1.02-.42-.19-.23-.3-.51-.36-.8-.1-.51-.11-1.03-.05-1.55.03-.27.08-.54.18-.8.23-.55.76-.86,1.38-.78.58.07.89.41.98,1.05.02.12.07.15.18.16.26,0,.52-.03.78-.03.82,0,1.65,0,2.47,0,.29,0,.31-.02.26-.3-.06-.43-.16-.85-.32-1.25-.19-.48-.47-.92-.87-1.26-.97-.84-2.12-1.21-3.38-1.26-.64-.03-1.26.03-1.88.2-1.09.3-2,.87-2.69,1.77-.66.85-.97,1.83-.99,2.9,0,.14,0,.14-.05.23,0-.02-.01-.04-.01-.06-.01-.48-.12-.95-.22-1.41-.31-1.35-1.04-2.38-2.3-3.01-.85-.42-1.76-.56-2.68-.6-.65-.02-1.29.06-1.92.27-1.64.54-2.69,1.65-3.2,3.28-.24.76-.27,1.55-.17,2.34.13,1.09.58,2.03,1.33,2.81.63.66,1.43,1.04,2.3,1.26.41.1.82.14,1.24.18.45.05.9,0,1.35-.04.52-.03,1.01-.19,1.49-.39.58-.23,1.12-.53,1.57-.97.49-.49.84-1.07,1.09-1.7.06-.16.05-.16-.13-.17-.32-.01-.63.04-.95.03-.8-.01-1.6,0-2.4-.01-.07,0-.13.01-.18.07-.39.46-.9.62-1.47.59-.82-.05-1.33-.6-1.51-1.34-.04-.15-.01-.17.14-.17,1.91,0,3.82,0,5.74-.03.27,0,.54,0,.81,0,.12,0,.18-.04.17-.17,0-.07,0-.14,0-.21.03.04.04.08.04.11,0,.4.13.77.26,1.13.26.75.71,1.38,1.28,1.92.38.36.82.63,1.3.84.87.38,1.78.52,2.72.46.74-.04,1.44-.23,2.11-.55.44-.21.87-.45,1.21-.81.65-.69,1.1-1.5,1.27-2.44.01-.08.02-.16.08-.24.06.08.05.16.05.23,0,.8,0,1.6,0,2.39,0,.34,0,.68,0,1.02,0,.11.04.16.15.16.05,0,.1,0,.15,0,1.13.02,2.25-.05,3.38-.03,0,0,.02,0,.03,0,.16,0,.2-.04.18-.2-.02-.19,0-.38,0-.56,0-.43.03-.85-.02-1.28-.05-.43-.06-.85.35-1.14,0,0,.01-.01.02-.02.09-.11.11-.11.18.02.58,1.01,1.15,2.01,1.72,3.02.06.11.14.16.26.16.23,0,.46,0,.69,0,1.22.02,2.43-.08,3.65-.05.04,0,.08.01.1-.02.03-.04-.02-.08-.04-.11-.27-.41-.55-.81-.82-1.23-.09-.14-.2-.26-.27-.42h0s0,0,0,0c0,0,0,0,0,0-.07-.06-.11-.13-.16-.2Zm-23.77-3.97c-.94-.01-1.87-.02-2.81.04-.14,0-.16-.02-.12-.16.16-.62.73-1.07,1.4-1.12.38-.03.73.03,1.05.24.33.22.48.54.59.9.03.09-.03.11-.11.1Z"/><path class="cls-1" d="m80.31,7.93c-.11-.73-.5-1.28-1.12-1.69-.49-.32-1.03-.51-1.58-.66-.68-.18-1.37-.29-2.05-.41-.28-.05-.56-.12-.81-.26-.19-.1-.25-.28-.16-.48.07-.16.21-.26.37-.3.25-.07.5-.1.75-.04.41.1.73.32.81.76.03.15.1.19.24.19,1.02,0,2.04,0,3.06,0,.06,0,.13,0,.19-.02.08,0,.11-.06.1-.13-.02-.1-.03-.21-.04-.31-.04-.36-.13-.71-.3-1.04-.28-.54-.75-.88-1.27-1.15-.65-.34-1.36-.48-2.09-.55-1.01-.1-2.02-.07-3.01.19-.75.2-1.45.51-1.97,1.12-.02.02-.04.06-.08.04-.04-.02-.03-.06-.03-.09,0-.33,0-.65,0-.98,0-.13-.04-.17-.16-.2-.42-.09-.84-.11-1.26-.11-.34,0-.67.08-.98.2-.49.19-.87.52-1.17.95-.04.06-.07.13-.16.17,0-.21-.02-.41-.03-.6,0-.15.07-.35-.03-.45-.11-.12-.3-.04-.46-.04-.91,0-1.83.04-2.74.02-.1,0-.19,0-.29,0-.18,0-.18,0-.18.18,0,1.17,0,2.35,0,3.52,0,.09.01.17.02.26,0,.29.02.57-.03.86-.05-.54-.14-1.08-.28-1.61-.2-.75-.53-1.42-1.07-1.98-.51-.53-1.13-.9-1.83-1.12-1.04-.32-2.1-.43-3.19-.25-1.9.32-3.2,1.38-3.88,3.17-.34.89-.39,1.81-.25,2.75.09.63.26,1.23.59,1.78.07.12.17.23.21.37.06.04.1.09.14.15.3.43.7.74,1.13,1.01.76.48,1.6.74,2.49.8.97.07,1.93.06,2.86-.29.69-.26,1.32-.59,1.85-1.11.48-.46.78-1.02,1.04-1.62.09-.2.07-.21-.15-.21-1.05,0-2.11.02-3.16-.02-.17,0-.31.02-.39.19-.02.04-.05.06-.09.09-.43.33-.91.49-1.47.41-.73-.12-1.15-.57-1.35-1.25-.07-.23-.11-.3.2-.26.02,0,.04,0,.06,0,2.05,0,4.09,0,6.14,0,.08,0,.16,0,.23-.02.19-.04.19-.04.19.16,0,1.18,0,2.37,0,3.55,0,.2,0,.2.2.2,1.16,0,2.33,0,3.49,0,.18,0,.19,0,.19-.18,0-.61,0-1.23,0-1.84,0-.63-.04-1.26-.03-1.9.01-.49.07-.97.22-1.43.19-.57.56-.96,1.16-1.14.54-.16,1.08-.09,1.62.01.07.01.1.06.11.12.13.79.58,1.36,1.24,1.78.53.33,1.12.5,1.72.65.61.15,1.23.22,1.84.35.23.05.46.11.67.21.17.08.29.2.3.41,0,.21-.1.34-.28.44-.37.2-.76.23-1.16.14-.48-.1-.78-.44-.85-.93-.01-.11-.08-.12-.16-.12-1.07,0-2.13,0-3.2,0-.36,0-.36,0-.34.37.03.49.18.94.44,1.36.49.8,1.24,1.27,2.11,1.54.9.28,1.82.38,2.76.31.7-.05,1.4-.13,2.07-.38.51-.19,1.01-.42,1.41-.79.81-.77,1.05-1.74.89-2.82Zm-20.29-2.23c-.92,0-1.85,0-2.77,0-.2,0-.21-.01-.14-.2.29-.71.78-1.03,1.55-1.04.55,0,.98.19,1.27.67.09.15.14.31.19.47.03.09,0,.13-.1.1Z"/><path class="cls-1" d="m12.66,7.23c-.96,0-1.91,0-2.87,0-.34,0-.67-.01-1.01-.03-.12,0-.18.03-.21.16-.03.17-.08.33-.15.49-.18.41-.41.77-.83.97-.64.31-1.29.29-1.93.02-.62-.26-.96-.77-1.16-1.38-.32-.96-.28-1.92.08-2.85.18-.48.49-.88.96-1.12.4-.21.83-.26,1.27-.24.62.03,1.13.27,1.49.8.14.21.22.44.28.68.02.09.06.15.17.14.31-.02.62.02.94.02.47,0,.95,0,1.42,0,.51,0,1.01,0,1.52,0,.19,0,.21-.03.18-.21-.07-.32-.12-.65-.21-.97-.21-.7-.53-1.34-1.05-1.86-.64-.64-1.4-1.07-2.26-1.31-1.1-.31-2.21-.42-3.35-.31-1.06.09-2.07.33-3.01.83C1.82,1.65,1,2.49.5,3.63.02,4.72-.09,5.86.07,7.04c.17,1.3.76,2.39,1.68,3.31.49.48,1.08.82,1.71,1.1.73.32,1.5.49,2.29.57.76.08,1.51.08,2.27-.03.7-.1,1.36-.31,1.99-.62.7-.34,1.35-.75,1.84-1.39.59-.76.97-1.59,1.01-2.56,0-.19,0-.19-.18-.19Z"/><path class="cls-1" d="m23.36,11.4c0-2.14,0-4.27-.03-6.41,0-.18-.03-.37-.06-.55-.18-1.05-.77-1.8-1.74-2.24-.82-.37-1.68-.39-2.55-.23-.67.12-1.28.4-1.76.9-.02.02-.04.04-.07.03-.03-.01-.02-.05-.03-.07-.01-.16.02-.32.03-.48.02-.71-.03-1.42.03-2.13.01-.17,0-.18-.18-.18-1.18,0-2.36,0-3.54,0-.11,0-.18.02-.16.15.01.08-.01.17-.01.26,0,1.85,0,3.69,0,5.54,0,.5,0,1,0,1.5,0,1.38,0,2.77,0,4.15,0,.19.04.23.22.2.19-.03.38-.03.56-.03.96,0,1.92,0,2.88,0,.23,0,.23,0,.23-.23-.01-.78,0-1.57-.02-2.35-.03-.86,0-1.71,0-2.57,0-.13,0-.26.03-.38.11-.64.42-1.19,1.15-1.24.54-.03.86.13,1.02.61.08.24.11.49.11.74.01,1.75-.03,3.49.05,5.24,0,.14.07.17.19.17.22,0,.45-.01.68-.02.92,0,1.85,0,2.77,0,.23,0,.23,0,.22-.23,0-.05,0-.11,0-.17Z"/></svg>