<?xml version="1.0" encoding="UTF-8"?><svg id="Layer_1" xmlns="http://www.w3.org/2000/svg" viewBox="0 0 100 14.81"><defs><style>.cls-1{fill:#fff;}</style></defs><path class="cls-1" d="m99.97,6.78c0-.12,0-.25-.01-.37-.06-.45-.15-.89-.29-1.33-.27-.87-.68-1.65-1.23-2.36-.61-.8-1.35-1.43-2.22-1.9C95.21.27,94.14,0,93.01,0c-.18,0-.36.02-.54.03-.39.03-.77.11-1.15.21-.62.17-1.21.43-1.76.77-.77.48-1.43,1.08-1.97,1.82-.34.47-.63.97-.86,1.51-.46,1.08-.68,2.22-.62,3.41.02.36.05.71.12,1.07.17.91.49,1.75.95,2.54.29.49.63.94,1.01,1.34.43.45.92.83,1.45,1.15.88.52,1.81.84,2.81.93.05,0,.1,0,.14.03h1c.12-.06.25-.04.38-.06,1.06-.15,2.04-.54,2.93-1.16.52-.36.98-.8,1.39-1.3.73-.87,1.22-1.88,1.51-3.01.11-.42.19-.84.18-1.28,0-.06,0-.11.03-.17v-.89c-.03-.06-.03-.12-.03-.18Zm-2,1.99s0,.07,0,.1c0,.06-.03.09-.09.1-.04,0-.07,0-.11,0-1.01,0-2.01,0-3.02,0-.15,0-.15,0-.15.16,0,.59,0,1.18,0,1.77,0,.57,0,1.14,0,1.71,0,.05,0,.1,0,.15,0,.06-.03.09-.09.1-.04,0-.09,0-.13,0-.89,0-1.78,0-2.66,0-.03,0-.06,0-.1,0-.06,0-.09-.04-.09-.1,0-.06,0-.11,0-.17,0-1.14,0-2.29,0-3.43,0-.02,0-.05,0-.07,0-.13,0-.13-.13-.13-1,0-2,0-3,0-.24,0-.24,0-.23-.26,0-.88,0-1.76,0-2.64,0-.23,0-.23.21-.23.96,0,1.93,0,2.89,0q.27,0,.27-.28c0-1.12,0-2.24,0-3.36q0-.25.24-.25c.87,0,1.73,0,2.6,0,.24,0,.24,0,.24.26,0,1.14,0,2.27,0,3.41,0,.25,0,.25.23.25.99,0,1.99,0,2.98,0,.16,0,.16,0,.16.17,0,.91,0,1.82,0,2.73Z"/><path class="cls-1" d="m11.56,8.05c.09-.3.13-.62.14-.94,0-.28,0-.56-.04-.83-.08-.5-.25-.96-.45-1.42-.02-.06-.06-.11-.09-.16-.01-.02-.03-.05-.06-.05-.04,0-.05.04-.05.08,0,.12-.03.24-.07.35-.01.03-.02.05-.06.05-.03,0-.03-.03-.04-.05-.02-.09-.04-.19-.06-.28-.06-.29-.2-.52-.4-.72-.08-.07-.11-.06-.14.02-.06.15-.07.15-.18.04-.13-.14-.27-.28-.42-.4-.19-.16-.4-.28-.65-.31-.13-.02-.15,0-.19.14,0,.03-.02.07-.03.1-.05.1-.11.12-.19.05-.09-.08-.17-.17-.25-.26-.15-.17-.32-.31-.5-.45-.13-.11-.28-.19-.45-.22-.12-.02-.12-.02-.16.1-.02.06-.03.13-.08.18-.17.16-.34.32-.55.4-.16.06-.25.01-.31-.16-.03-.08-.06-.09-.12-.04-.07.05-.12.13-.17.21-.14.21-.32.37-.53.48-.14.07-.28.12-.42.16-.24.07-.45.17-.6.39-.07.1-.1.09-.17,0-.08-.12-.17-.22-.31-.26-.09-.03-.11,0-.1.09.01.14.04.27.05.41.03.22.04.44-.03.66-.05.13-.13.2-.26.22-.6.07-1.2.15-1.8.22-.49.06-.99.1-1.48.17-.1.01-.2.02-.3.03-.02,0-.04.01-.05.04,0,.04.02.05.05.05.02,0,.03,0,.05,0,.18,0,.36.03.54.04.38.03.77.07,1.15.09.29.02.59.06.88.07.35,0,.7.07,1.06.07.08,0,.13.04.15.12.03.13.07.25.1.38.03.15.11.26.24.32.15.07.18.19.18.36,0,.49-.06.99-.03,1.48.01.22.04.43.1.64.03.09.08.14.17.15.1,0,.19.01.29.02.08,0,.12-.03.15-.1.05-.13.09-.25.14-.38.03-.07.05-.15.13-.22,0,.05,0,.08,0,.1-.01.12-.03.24-.05.35-.01.11.02.13.12.11.22-.05.35-.19.38-.43.03-.2.07-.39.12-.58.05-.21.16-.36.35-.48.38-.25.6-.62.59-1.12,0-.06-.01-.12.02-.17.03,0,.05,0,.07.03.24.29.36.63.38,1.01,0,.12-.01.22-.06.33-.16.4-.32.8-.47,1.19-.14.36-.29.72-.39,1.1-.08.34-.13.69-.07,1.04.04.2.04.2.22.21.26,0,.51-.04.77-.07.29-.03.57-.09.85-.17.39-.11.75-.27,1.09-.49.36-.23.71-.47,1.01-.79.61-.64,1-1.43,1.26-2.29Zm-6.39-1.08c-.06-.03-.06-.08-.06-.14,0-.06.08-.13.13-.12.06.01.07.06.07.12,0,.06-.09.15-.14.15Z"/><path class="cls-1" d="m81.36,7.45c-.42-.27-.88-.44-1.33-.62-.57-.22-1.15-.39-1.73-.56-.32-.09-.64-.19-.94-.35-.16-.08-.3-.2-.42-.34-.27-.33-.2-.73.16-.93,0,0,.02-.01.03-.02.34-.19.72-.25,1.1-.29.5-.04.99.02,1.48.14.47.12.94.28,1.36.56.41.27.8.58,1.11.97.05.07.1.14.18.2.03-.1.01-.18,0-.26-.1-.57-.21-1.14-.29-1.71-.03-.17-.09-.26-.23-.33-.76-.41-1.57-.67-2.41-.8-.4-.06-.81-.1-1.21-.11-.19,0-.38.02-.58.03-.63.05-1.24.17-1.83.41-.46.19-.87.45-1.21.84-.5.58-.57,1.44-.19,2.08.25.41.6.7.99.95.51.32,1.06.51,1.61.72.66.26,1.35.43,2.01.7.29.12.57.24.82.42.12.08.23.17.31.29.11.17.14.34.05.53-.09.21-.22.39-.42.51-.24.15-.5.23-.78.24-.53.02-1.05-.05-1.56-.18-.89-.23-1.73-.6-2.53-1.06-.3-.17-.59-.35-.82-.62-.02-.02-.04-.05-.09-.05-.02.04,0,.07,0,.1.05.17.1.34.14.51.13.49.28.97.42,1.45.03.11.1.19.2.23.23.09.45.18.68.26.79.26,1.59.49,2.42.59.36.04.73.05,1.09.08.14.01.28-.03.42-.03.62-.02,1.21-.17,1.76-.48.22-.12.44-.24.61-.43.4-.44.68-.93.69-1.56,0-.41-.06-.8-.25-1.16-.2-.39-.49-.67-.84-.9Z"/><path class="cls-1" d="m70.51,11.62c-.53-.29-.96-.7-1.39-1.12-.61-.61-1.2-1.25-1.78-1.9-.29-.33-.56-.67-.85-1-.08-.09-.16-.19-.23-.28-.12-.14-.12-.17,0-.3.01-.02.03-.03.04-.05.38-.42.79-.81,1.19-1.21.45-.44.9-.87,1.37-1.28.43-.38.87-.74,1.36-1.03.07-.04.15-.06.21-.13-.05-.06-.11-.05-.17-.05-1.12,0-2.25,0-3.37,0-.21,0-.2,0-.11.2.18.39.2.62-.13,1.02-.02.03-.05.05-.07.07-.48.53-.99,1.02-1.53,1.48-.32.28-.64.56-.99.78-.03.02-.06.06-.1.04-.05-.02-.03-.08-.03-.12,0-.16,0-.32,0-.48,0-.41,0-.82-.02-1.23-.03-.5.06-.97.29-1.41.05-.09.11-.18.16-.27.03-.05.02-.09-.04-.09-.03,0-.05,0-.08,0-.83,0-1.67,0-2.5,0-.05,0-.12-.02-.15.03-.03.06.03.1.06.15.26.41.39.86.39,1.35,0,1.8,0,3.61,0,5.41,0,.47-.13.89-.36,1.29-.03.05-.11.1-.08.17.04.07.13.04.19.04.81,0,1.63,0,2.44,0,.03,0,.05,0,.08,0,.08,0,.09-.03.05-.11-.02-.04-.05-.08-.07-.11-.2-.34-.33-.7-.37-1.1-.02-.19,0-.37,0-.56,0-.57.02-1.15-.01-1.72,0-.1,0-.2,0-.31,0-.04,0-.09.04-.11.04-.02.07.01.1.04.43.37.85.76,1.26,1.17.11.11.23.2.33.32.25.28.49.57.72.87.24.3.43.64.53,1.02.05.21,0,.38-.14.53-.04.04-.09.06-.08.14h4.1c-.04-.06-.09-.06-.13-.09-.05-.03-.1-.05-.14-.07Z"/><path class="cls-1" d="m56.71,9.28c-.25.25-.54.45-.83.63-.54.34-1.1.61-1.73.68-.54.06-1.05,0-1.54-.21-.89-.36-1.51-1.03-1.91-1.94-.26-.59-.28-1.19-.09-1.81.19-.61.51-1.13.97-1.56.41-.38.89-.63,1.43-.73.45-.08.9-.07,1.35.04.56.14,1.1.34,1.6.64.22.13.43.27.64.42.03.02.06.06.1.03.03-.03.02-.07.02-.11,0-.02,0-.04-.01-.07-.09-.59-.18-1.19-.26-1.78-.02-.17-.02-.17-.17-.21-.74-.2-1.5-.32-2.27-.34-.64-.02-1.28.02-1.91.17-.87.2-1.67.56-2.37,1.16-.64.54-1.13,1.2-1.42,2.02-.22.63-.25,1.26-.08,1.91.25.95.75,1.73,1.45,2.36.56.5,1.2.84,1.9,1.07.36.12.74.19,1.11.24.33.04.67.08,1.01.09.35,0,.7-.04,1.06-.06.41-.03.81-.09,1.21-.17.31-.06.26,0,.34-.34.17-.7.33-1.4.5-2.1,0-.02.01-.04,0-.07-.04,0-.06.01-.08.03Z"/><path class="cls-1" d="m23.1,10.25c-.55.27-1.11.38-1.71.33-.75-.06-1.4-.35-1.97-.89-.42-.41-.74-.88-.95-1.44-.16-.44-.19-.88-.09-1.34.15-.66.45-1.23.91-1.71.58-.6,1.28-.89,2.08-.92.32-.01.63.05.94.13.56.14,1.08.36,1.57.67.2.12.39.26.59.38.03.02.06.04.09.01.02-.02.01-.05,0-.08,0-.02,0-.04-.01-.07-.08-.53-.16-1.07-.23-1.6,0-.08-.03-.16-.04-.24-.01-.1-.06-.17-.16-.18-.04,0-.08-.02-.12-.03-.54-.13-1.09-.24-1.65-.27-.38-.02-.75-.07-1.13-.04-.44.04-.87.07-1.3.17-.67.16-1.3.4-1.88.79-.78.53-1.4,1.21-1.79,2.11-.32.74-.4,1.49-.16,2.27.17.56.42,1.08.77,1.54.22.28.44.56.71.78.71.58,1.51.96,2.39,1.14.36.08.73.11,1.1.15.56.05,1.11.01,1.66-.03.4-.03.8-.1,1.19-.18.1-.02.17-.06.19-.17.01-.04.02-.09.03-.13.14-.51.24-1.02.36-1.54.05-.23.13-.44.14-.7-.08.07-.15.14-.23.21-.4.35-.85.63-1.32.86Z"/><path class="cls-1" d="m36.17,9.28c-.11.11-.23.21-.36.29-.4.26-.83.44-1.29.54-.5.11-1,.19-1.51.2-.42,0-.83-.02-1.25.03-.06,0-.13,0-.19,0-.23-.05-.23.02-.23-.28,0-1.69,0-3.39,0-5.08,0-.57.1-1.09.4-1.57.06-.1.05-.13-.08-.14-.05,0-.1,0-.14,0-.57,0-1.15,0-1.72,0-.2,0-.41,0-.61,0-.12,0-.13.03-.07.14.27.47.39.98.39,1.52,0,1.6,0,3.21,0,4.81,0,.16,0,.33,0,.49-.02.45-.14.87-.36,1.26-.02.04-.08.08-.05.13.03.06.1.03.15.04.02,0,.03,0,.05,0,1.32,0,2.64,0,3.96,0,.72,0,1.44,0,2.17,0,.16,0,.17,0,.21-.16.15-.53.3-1.05.45-1.58.06-.22.13-.44.19-.68-.06,0-.08.03-.1.05Z"/><path class="cls-1" d="m17.82,11.72c-.21-.11-.42-.22-.63-.35-.33-.21-.64-.46-.91-.75-.29-.32-.53-.68-.73-1.08-.36-.71-.49-1.47-.49-2.27,0-.36.06-.72.15-1.08.19-.74.55-1.38,1.06-1.92.53-.56,1.14-.98,1.81-1.3.04-.02.1-.02.12-.09-.06-.06-.13-.03-.2-.03-1.21,0-2.43,0-3.64,0q-.27,0-.27.29v8.38s0,.07,0,.1c0,.19.02.21.19.21,1.16,0,2.32,0,3.48,0,.05,0,.11.02.15-.04,0-.06-.06-.06-.09-.08Z"/><path class="cls-1" d="m13.37,2.87c-.09,0-.18,0-.27,0-1.11,0-2.23,0-3.34,0-.07,0-.14-.02-.19.03,0,.05.03.06.05.07.17.09.34.17.5.26.61.35,1.14.8,1.58,1.37.3.39.5.83.64,1.31.08.27.17.55.19.83.03.49.05.99-.03,1.48-.18,1.17-.73,2.11-1.61,2.84-.33.27-.71.47-1.08.66-.05.02-.1.03-.13.1.06.06.13.04.2.04,1.13,0,2.27,0,3.4,0q.26,0,.26-.28V3.15s0-.07,0-.1c0-.17-.02-.18-.18-.18Z"/><path class="cls-1" d="m42.83,10.1c0-1.76,0-3.51,0-5.27,0-.48.11-.93.35-1.35.13-.22.12-.23-.12-.23-.73,0-1.45,0-2.18,0-.04,0-.08,0-.11,0-.08.01-.09.04-.06.11.03.07.07.14.11.21.19.38.3.78.3,1.21,0,1.76,0,3.51,0,5.27,0,.52-.11,1.01-.39,1.45-.03.04-.07.08-.05.14.03.06.09.04.14.04.38,0,.76,0,1.14,0,.37,0,.75,0,1.12,0,.06,0,.14.03.18-.03.04-.07-.03-.12-.06-.18-.25-.42-.37-.88-.37-1.37Z"/></svg>