<?xml version="1.0" encoding="UTF-8"?><svg id="Layer_1" xmlns="http://www.w3.org/2000/svg" viewBox="0 0 75 10.5"><defs><style>.cls-1{fill:#fff;}</style></defs><path class="cls-1" d="m8.33.83c-.26-.19-.53-.35-.83-.46-.28-.1-.56-.18-.86-.24-.39-.08-.79-.12-1.19-.12C3.91,0,2.37,0,.83,0c-.03,0-.06,0-.1,0-.07,0-.1.03-.11.09-.04.15-.08.31-.13.46C.33,1.11.17,1.66.02,2.22c-.04.13-.02.16.11.16.04,0,.08,0,.12,0,1.15,0,2.31,0,3.46,0,.39,0,.78.01,1.16,0,.25,0,.5.04.75.11.41.12.73.34.94.71.16.28.24.59.26.92.03.46-.03.91-.16,1.35-.2.7-.57,1.3-1.12,1.78-.55.48-1.18.78-1.9.88-.21.03-.21.07-.21-.18,0-1.69,0-3.39,0-5.08q0-.18-.18-.18c-.84,0-1.68,0-2.52,0q-.21,0-.21.21c0,2.42,0,4.84,0,7.27,0,.11,0,.21,0,.32h2.9c.2-.04.41-.04.61-.07.14-.02.29-.04.43-.07.27-.05.54-.14.8-.22.7-.21,1.35-.53,1.96-.95.2-.14.41-.29.59-.46.34-.31.63-.67.9-1.04.37-.52.64-1.09.82-1.7.1-.32.17-.64.21-.97.03-.27.07-.54.07-.81,0-.41-.04-.83-.14-1.23-.2-.87-.61-1.62-1.35-2.15Z"/><path class="cls-1" d="m75,3.51c0-.05-.02-.08-.07-.09-.16-.04-.31-.09-.48-.09-.86,0-1.72,0-2.58,0-.2,0-.2,0-.2-.2,0-.89,0-1.78,0-2.67,0-.1-.02-.19-.05-.28-.06-.15-.1-.18-.26-.18-.42,0-.85,0-1.27,0-.67,0-1.35,0-2.02,0-.15,0-.17.02-.22.15-.05.14-.07.29-.07.44,0,.84,0,1.69,0,2.53q0,.2-.2.2c-.92,0-1.83,0-2.75,0-.04,0-.09,0-.13,0-.12.01-.19.07-.22.18-.02.07-.04.15-.02.22.02.11.01.22.01.33,0,.79,0,1.58,0,2.36,0,.17,0,.35,0,.52,0,.12.05.19.17.22.05.01.1.02.15.02.34-.01.68,0,1.02,0,.61,0,1.21,0,1.82,0,.02,0,.04,0,.06,0,.05,0,.08.03.08.08,0,.04,0,.07,0,.11,0,.46,0,.91,0,1.37,0,.44,0,.88,0,1.32,0,.15.03.3.12.43h3.66s.01-.08.03-.11c.06-.14.07-.28.07-.43,0-.84,0-1.69,0-2.53,0-.04,0-.07,0-.11,0-.11.02-.12.13-.12,0,0,.02,0,.02,0,.77,0,1.54,0,2.31,0,.06,0,.12,0,.18,0,.18.01.36,0,.53-.07.16-.06.17-.07.17-.24,0-1.1,0-2.2,0-3.3,0-.03,0-.06,0-.09Z"/><path class="cls-1" d="m60.19,5.07c-.04-.3-.08-.6-.18-.89-.15-.44-.42-.79-.82-1.03-.31-.19-.65-.29-1.01-.34-.37-.05-.73-.05-1.1-.05-2.47,0-4.93,0-7.4,0-.24,0-.23-.02-.23.22,0,2.39,0,4.78,0,7.17,0,.12,0,.24,0,.36h2.55c0-.11,0-.22,0-.33,0-1.7,0-3.4,0-5.1,0-.22-.02-.22.21-.22.39,0,.78,0,1.18,0,.04,0,.07,0,.11,0,.04,0,.06.03.07.07,0,.04,0,.09,0,.13,0,1.41,0,2.82,0,4.23,0,.41,0,.81,0,1.22h2.55c0-.06,0-.12,0-.18,0-1.76,0-3.52,0-5.28,0-.2,0-.19.19-.2.21,0,.43.02.64.03.14,0,.28.06.41.12.15.07.21.22.25.37.04.16.05.32.05.48,0,1.55,0,3.1,0,4.65h2.55c0-.06,0-.13,0-.19,0-1.48,0-2.96,0-4.44,0-.27,0-.54-.02-.81Z"/><path class="cls-1" d="m39.79,3.9c-.2-.39-.49-.68-.9-.85-.26-.11-.53-.19-.81-.23-.2-.03-.39-.06-.59-.06-.52,0-1.04,0-1.56,0q-.18,0-.18-.17c0-.79,0-1.58,0-2.37,0-.21,0-.2-.21-.2C34.8,0,34.06,0,33.32,0c-.2,0-.21-.03-.21.21,0,1.79,0,3.59,0,5.38,0,1.64,0,3.28,0,4.92h2.64c0-.06,0-.12,0-.18,0-1.76,0-3.51,0-5.27,0-.22,0-.2.21-.2.28,0,.55,0,.83.03.12.01.24.04.36.09.11.04.18.13.23.23.06.13.09.26.1.4,0,.03,0,.06,0,.08,0,1.61,0,3.21,0,4.82h2.64c0-.06,0-.11,0-.17,0-1.53,0-3.06,0-4.58,0-.29-.03-.58-.06-.86-.03-.34-.13-.68-.28-.99Z"/><path class="cls-1" d="m32.07,8.16c-.1-.01-.2-.03-.31-.03-.34-.01-.67-.07-1-.14-.5-.12-.97-.33-1.39-.63-.33-.23-.59-.52-.83-.84-.46-.62-.66-1.33-.69-2.1,0-.17.02-.34.04-.51.04-.32.15-.6.34-.86.32-.42.77-.58,1.27-.63.24-.03.47-.03.71-.03.52,0,1.03,0,1.55,0,.13,0,.27,0,.4,0,.09,0,.1-.02.08-.11-.2-.71-.41-1.41-.61-2.12-.04-.15-.04-.15-.2-.15-.7,0-1.4,0-2.09,0-.18,0-.36,0-.55.02-.3.03-.59.07-.88.13-.67.15-1.29.4-1.81.87-.23.21-.44.44-.61.71-.27.44-.46.92-.54,1.44-.02.14-.03.28-.05.41-.06.33-.05.66-.02.98.02.3.06.6.13.9.14.65.36,1.26.69,1.84.37.65.81,1.24,1.41,1.72.31.25.63.47.97.66.44.24.89.45,1.38.58.25.07.5.13.75.16.17.02.34.06.52.05.02,0,.05.01.07.02h.95c.1-.36.21-.73.31-1.09.11-.38.22-.77.33-1.15.03-.09,0-.11-.08-.1-.08.01-.17.01-.25,0Z"/><path class="cls-1" d="m47.88,3.2c-.37-.29-.8-.44-1.26-.53-.3-.06-.61-.09-.91-.1-.52-.01-1.04-.03-1.56.02-.13.01-.27,0-.4.02-.36.06-.72.14-1.06.27-.53.21-.94.55-1.21,1.06-.26.5-.36,1.04-.38,1.59-.01.24,0,.49.04.73.03.23.07.46.13.69.17.63.47,1.19.86,1.7.27.35.59.66.95.92.23.17.48.31.73.44.38.2.79.31,1.21.41.12.03.25.03.37.06h2.05s.04-.07.05-.11c.19-.61.37-1.23.57-1.83.05-.15.05-.15-.11-.15-.43,0-.86,0-1.3,0-.08,0-.17,0-.25-.02-.23-.03-.46-.05-.7-.08-.04,0-.09,0-.13-.04,0-.03.02-.04.04-.05.18-.11.36-.21.53-.32.38-.23.76-.46,1.09-.76.34-.31.64-.64.87-1.04.35-.62.46-1.28.32-1.98-.08-.37-.28-.68-.58-.92Zm-2.24,2.33c-.29.36-.65.62-1.04.85-.18.1-.37.21-.55.31-.09.05-.1.05-.12-.05-.07-.26-.15-.52-.12-.79-.02-.15,0-.3.05-.45.06-.21.19-.38.37-.51.12-.08.25-.13.39-.16.3-.07.6-.05.9,0,.04,0,.09.02.13.03.11.04.17.13.19.25.02.21-.05.37-.18.53Z"/><path class="cls-1" d="m19.48,7.44c-.27-.41-.57-.8-.9-1.16-.28-.32-.55-.64-.81-.98-.03-.04-.06-.08-.08-.13-.05-.2,0-.3.19-.33.23-.04.45-.07.69-.06.3,0,.6,0,.9,0,.09,0,.1-.01.07-.1-.06-.2-.13-.41-.2-.61-.13-.4-.26-.81-.39-1.21-.03-.08-.05-.1-.13-.11-.04,0-.07,0-.11,0-.71,0-1.42,0-2.13,0-.39,0-.76.09-1.11.28-.39.21-.67.51-.84.92-.04.1-.08.2-.09.31-.02.18-.03.36,0,.54.04.24.1.46.22.67.21.37.46.71.73,1.04.23.29.47.57.71.85.22.27.43.55.6.86.05.09.04.11-.05.13-.29.07-.59.06-.89.08-.02,0-.04,0-.06,0-.08-.01-.16-.02-.24-.02-.29,0-.59,0-.88,0-.25,0-.24-.02-.16.22.19.62.39,1.25.58,1.87h2.97s.03-.01.04-.02c.29-.04.55-.14.8-.29.61-.37.87-.93.9-1.61,0-.11-.03-.22-.04-.33-.04-.29-.14-.56-.3-.81Z"/><path class="cls-1" d="m13.48,2.83s-.03-.07-.07-.08c-.02,0-.05,0-.07,0-.78,0-1.55,0-2.33,0-.15,0-.16,0-.16.16,0,.02,0,.04,0,.06,0,.84,0,1.69,0,2.53,0,1.67,0,3.33,0,5h2.64s0-.07,0-.11c0-2.48,0-4.96,0-7.44,0-.04,0-.08,0-.12Z"/><path class="cls-1" d="m24.37,4.99h-3.99q-.21,0-.21.2v1.64q0,.21.21.21c1.28,0,2.55,0,3.83,0,.07,0,.13,0,.2,0,.12,0,.14-.02.14-.14,0-.02,0-.03,0-.05,0-.56,0-1.12,0-1.67,0-.19,0-.19-.18-.19Z"/><path class="cls-1" d="m11.03,2.12c.75,0,1.51,0,2.26,0,.03,0,.06,0,.08,0,.09,0,.1-.02.11-.11,0-.02,0-.05,0-.07,0-.59,0-1.19,0-1.78,0-.03,0-.06,0-.08,0-.05-.03-.07-.08-.07-.04,0-.07,0-.11,0h-2.27q-.18,0-.18.18c0,.59,0,1.17,0,1.76,0,.18,0,.19.19.19Z"/></svg>