<?xml version="1.0" encoding="UTF-8"?>
<svg id="Layer_1" data-name="Layer 1" xmlns="http://www.w3.org/2000/svg" viewBox="0 0 436.6 339.12">
  <defs>
    <style>
      .cls-1 {
        fill: #44b8b3;
      }
    </style>
  </defs>
  <path class="cls-1" d="m286.33,87.32c-28.1,36.22-42.14,77.17-42.14,122.86,0,39.26,10.32,70.57,30.97,93.92,20.64,23.35,45.18,35.03,73.61,35.03,24.37,0,45.1-8.63,62.19-25.89,17.09-17.26,25.64-37.23,25.64-59.91s-7.45-40.36-22.34-56.1c-14.9-15.74-31.98-23.61-51.27-23.61-16.59,0-30.29,3.89-41.12,11.68-3.39,2.37-5.93,3.55-7.61,3.55s-3.22-1.02-4.57-3.05c-2.03-3.05-3.05-7.78-3.05-14.21,0-29.78,9.98-58.46,29.95-86.05,19.97-27.58,47.55-47.8,82.75-60.67V0c-60.59,22-104.92,51.11-133.01,87.32Zm-244.19,0C14.04,123.54,0,164.49,0,210.18c0,39.26,10.32,70.57,30.97,93.92,20.64,23.35,45.18,35.03,73.61,35.03,24.37,0,45.1-8.63,62.19-25.89,17.09-17.26,25.64-37.23,25.64-59.91s-7.45-40.36-22.34-56.1c-14.9-15.74-31.98-23.61-51.27-23.61-16.59,0-30.29,3.89-41.12,11.68-3.39,2.37-5.93,3.55-7.61,3.55s-3.22-1.02-4.57-3.05c-2.03-3.05-3.05-7.78-3.05-14.21,0-29.78,9.98-58.46,29.95-86.05,19.97-27.58,47.55-47.8,82.75-60.67V0C114.56,22,70.23,51.11,42.14,87.32Z"/>
</svg>